<svg width="92" height="16" viewBox="0 0 92 16" fill="none" xmlns="http://www.w3.org/2000/svg">
<path d="M7.13999 3.70001C8.05999 3.70001 8.87999 3.93335 9.59999 4.40001C10.3333 4.85335 10.9067 5.51335 11.32 6.38001C11.7467 7.23335 11.96 8.24668 11.96 9.42001C11.96 10.58 11.7467 11.5933 11.32 12.46C10.9067 13.3267 10.3333 13.9933 9.59999 14.46C8.87999 14.9133 8.05999 15.14 7.13999 15.14C6.28666 15.14 5.55333 14.9467 4.93999 14.56C4.32666 14.1733 3.87999 13.6467 3.59999 12.98V15H0.179993V0.200012H3.59999V5.86001C3.87999 5.19335 4.32666 4.66668 4.93999 4.28001C5.55333 3.89335 6.28666 3.70001 7.13999 3.70001ZM6.03999 6.70001C5.31999 6.70001 4.72666 6.94668 4.25999 7.44001C3.80666 7.92001 3.57999 8.58001 3.57999 9.42001C3.57999 10.2467 3.80666 10.9067 4.25999 11.4C4.72666 11.8933 5.31999 12.14 6.03999 12.14C6.77333 12.14 7.35999 11.9 7.79999 11.42C8.25333 10.94 8.47999 10.2733 8.47999 9.42001C8.47999 8.56668 8.25333 7.90001 7.79999 7.42001C7.35999 6.94001 6.77333 6.70001 6.03999 6.70001Z" fill="#5E81F4"/>
<path d="M24.3347 9.12001C24.3347 9.40001 24.3013 9.70668 24.2347 10.04H16.4947C16.5347 10.88 16.748 11.4867 17.1347 11.86C17.5213 12.22 18.0147 12.4 18.6147 12.4C19.1213 12.4 19.5413 12.2733 19.8747 12.02C20.208 11.7667 20.428 11.44 20.5347 11.04H24.1547C24.008 11.8267 23.688 12.5333 23.1947 13.16C22.7013 13.7733 22.0747 14.26 21.3147 14.62C20.5547 14.9667 19.708 15.14 18.7747 15.14C17.6813 15.14 16.708 14.9133 15.8547 14.46C15.0147 13.9933 14.3547 13.3267 13.8747 12.46C13.3947 11.5933 13.1547 10.58 13.1547 9.42001C13.1547 8.24668 13.388 7.23335 13.8547 6.38001C14.3347 5.51335 15.0013 4.85335 15.8547 4.40001C16.708 3.93335 17.6813 3.70001 18.7747 3.70001C19.8813 3.70001 20.8547 3.92668 21.6947 4.38001C22.5347 4.83335 23.1813 5.47335 23.6347 6.30001C24.1013 7.11335 24.3347 8.05335 24.3347 9.12001ZM20.8747 8.60001C20.888 7.86668 20.688 7.32001 20.2747 6.96001C19.8747 6.58668 19.3747 6.40001 18.7747 6.40001C18.148 6.40001 17.628 6.58668 17.2147 6.96001C16.8013 7.33335 16.568 7.88001 16.5147 8.60001H20.8747Z" fill="#5E81F4"/>
<path d="M32.4375 12.06V15H30.8975C29.5908 15 28.5708 14.68 27.8375 14.04C27.1175 13.3867 26.7575 12.3133 26.7575 10.82V6.72001H25.2575V3.84001H26.7575V1.10001H30.1775V3.84001H32.4175V6.72001H30.1775V10.88C30.1775 11.32 30.2642 11.6267 30.4375 11.8C30.6242 11.9733 30.9308 12.06 31.3575 12.06H32.4375Z" fill="#5E81F4"/>
<path d="M38.5997 3.70001C39.453 3.70001 40.1863 3.89335 40.7997 4.28001C41.413 4.66668 41.8663 5.19335 42.1597 5.86001V3.84001H45.5597V15H42.1597V12.98C41.8663 13.6467 41.413 14.1733 40.7997 14.56C40.1863 14.9467 39.453 15.14 38.5997 15.14C37.6797 15.14 36.853 14.9133 36.1197 14.46C35.3997 13.9933 34.8263 13.3267 34.3997 12.46C33.9863 11.5933 33.7797 10.58 33.7797 9.42001C33.7797 8.24668 33.9863 7.23335 34.3997 6.38001C34.8263 5.51335 35.3997 4.85335 36.1197 4.40001C36.853 3.93335 37.6797 3.70001 38.5997 3.70001ZM39.6997 6.70001C38.9663 6.70001 38.373 6.94001 37.9197 7.42001C37.4797 7.90001 37.2597 8.56668 37.2597 9.42001C37.2597 10.2733 37.4797 10.94 37.9197 11.42C38.373 11.9 38.9663 12.14 39.6997 12.14C40.4197 12.14 41.0063 11.8933 41.4597 11.4C41.9263 10.9067 42.1597 10.2467 42.1597 9.42001C42.1597 8.58001 41.9263 7.92001 41.4597 7.44001C41.0063 6.94668 40.4197 6.70001 39.6997 6.70001Z" fill="#5E81F4"/>
<path d="M54.3744 0.720011C56.1744 0.720011 57.661 1.19335 58.8344 2.14001C60.021 3.08668 60.7877 4.36668 61.1344 5.98001H57.5144C57.2477 5.32668 56.8344 4.81335 56.2744 4.44001C55.7277 4.06668 55.0744 3.88001 54.3144 3.88001C53.3144 3.88001 52.5077 4.24668 51.8944 4.98001C51.281 5.71335 50.9744 6.69335 50.9744 7.92001C50.9744 9.14668 51.281 10.1267 51.8944 10.86C52.5077 11.58 53.3144 11.94 54.3144 11.94C55.0744 11.94 55.7277 11.7533 56.2744 11.38C56.8344 11.0067 57.2477 10.5 57.5144 9.86001H61.1344C60.7877 11.46 60.021 12.74 58.8344 13.7C57.661 14.6467 56.1744 15.12 54.3744 15.12C53.001 15.12 51.7944 14.82 50.7544 14.22C49.7144 13.6067 48.9077 12.7533 48.3344 11.66C47.7744 10.5667 47.4944 9.32001 47.4944 7.92001C47.4944 6.52001 47.7744 5.27335 48.3344 4.18001C48.9077 3.08668 49.7144 2.24001 50.7544 1.64001C51.7944 1.02668 53.001 0.720011 54.3744 0.720011Z" fill="#5E81F4"/>
<path d="M70.3111 15L67.2511 9.66001H66.4711V15H63.0511V0.860012H68.8911C70.0111 0.860012 70.9578 1.05335 71.7311 1.44001C72.5044 1.82668 73.0844 2.36001 73.4711 3.04001C73.8577 3.70668 74.0511 4.47334 74.0511 5.34001C74.0511 6.36668 73.7644 7.24001 73.1911 7.96001C72.6311 8.68001 71.8111 9.17335 70.7311 9.44001L74.0911 15H70.3111ZM66.4711 7.32001H68.5911C69.2711 7.32001 69.7711 7.17335 70.0911 6.88001C70.4111 6.57335 70.5711 6.12668 70.5711 5.54001C70.5711 4.98001 70.4044 4.54001 70.0711 4.22001C69.7511 3.90001 69.2578 3.74001 68.5911 3.74001H66.4711V7.32001Z" fill="#5E81F4"/>
<path d="M91.6659 0.960012V15H88.2459V6.22001L85.2059 15H82.2459L79.1859 6.20001V15H75.7659V0.960012H79.9459L83.7659 10.74L87.5059 0.960012H91.6659Z" fill="#5E81F4"/>
</svg>
