<svg width="18" height="11" viewBox="0 0 18 11" fill="none" xmlns="http://www.w3.org/2000/svg">
<path d="M5.0625 0.1875C4.45312 0.1875 3.89062 0.339844 3.375 0.644531C2.85938 0.949219 2.44922 1.35937 2.14453 1.875C1.83984 2.39063 1.6875 2.95313 1.6875 3.5625C1.6875 4.11328 1.81055 4.62891 2.05664 5.10938C2.30273 5.57812 2.64258 5.9707 3.07617 6.28711C2.32617 6.66211 1.7168 7.21289 1.24805 7.93945C0.791016 8.6543 0.5625 9.44531 0.5625 10.3125H1.6875C1.6875 9.70312 1.83984 9.14062 2.14453 8.625C2.44922 8.10938 2.85938 7.69922 3.375 7.39453C3.89062 7.08984 4.45312 6.9375 5.0625 6.9375C5.67188 6.9375 6.23438 7.08984 6.75 7.39453C7.26562 7.69922 7.67578 8.10938 7.98047 8.625C8.28516 9.14062 8.4375 9.70312 8.4375 10.3125H9.5625C9.5625 9.70312 9.71484 9.14062 10.0195 8.625C10.3242 8.10938 10.7344 7.69922 11.25 7.39453C11.7656 7.08984 12.3281 6.9375 12.9375 6.9375C13.5469 6.9375 14.1094 7.08984 14.625 7.39453C15.1406 7.69922 15.5508 8.10938 15.8555 8.625C16.1602 9.14062 16.3125 9.70312 16.3125 10.3125H17.4375C17.4375 9.44531 17.2031 8.6543 16.7344 7.93945C16.2773 7.21289 15.6738 6.66211 14.9238 6.28711C15.3574 5.9707 15.6973 5.57812 15.9434 5.10938C16.1895 4.62891 16.3125 4.11328 16.3125 3.5625C16.3125 2.95313 16.1602 2.39063 15.8555 1.875C15.5508 1.35937 15.1406 0.949219 14.625 0.644531C14.1094 0.339844 13.5469 0.1875 12.9375 0.1875C12.3281 0.1875 11.7656 0.339844 11.25 0.644531C10.7344 0.949219 10.3242 1.35937 10.0195 1.875C9.71484 2.39063 9.5625 2.95313 9.5625 3.5625C9.5625 4.11328 9.68555 4.62891 9.93164 5.10938C10.1777 5.57812 10.5176 5.9707 10.9512 6.28711C10.0957 6.70898 9.44531 7.32422 9 8.13281C8.55469 7.32422 7.9043 6.70898 7.04883 6.28711C7.48242 5.9707 7.82227 5.57812 8.06836 5.10938C8.31445 4.62891 8.4375 4.11328 8.4375 3.5625C8.4375 2.95313 8.28516 2.39063 7.98047 1.875C7.67578 1.35937 7.26562 0.949219 6.75 0.644531C6.23438 0.339844 5.67188 0.1875 5.0625 0.1875ZM5.0625 1.3125C5.47266 1.3125 5.84766 1.41211 6.1875 1.61133C6.53906 1.81055 6.81445 2.08594 7.01367 2.4375C7.21289 2.77734 7.3125 3.15234 7.3125 3.5625C7.3125 3.97266 7.21289 4.35352 7.01367 4.70508C6.81445 5.04492 6.53906 5.31445 6.1875 5.51367C5.84766 5.71289 5.47266 5.8125 5.0625 5.8125C4.65234 5.8125 4.27148 5.71289 3.91992 5.51367C3.58008 5.31445 3.31055 5.04492 3.11133 4.70508C2.91211 4.35352 2.8125 3.97266 2.8125 3.5625C2.8125 3.15234 2.91211 2.77734 3.11133 2.4375C3.31055 2.08594 3.58008 1.81055 3.91992 1.61133C4.27148 1.41211 4.65234 1.3125 5.0625 1.3125ZM12.9375 1.3125C13.3477 1.3125 13.7227 1.41211 14.0625 1.61133C14.4141 1.81055 14.6895 2.08594 14.8887 2.4375C15.0879 2.77734 15.1875 3.15234 15.1875 3.5625C15.1875 3.97266 15.0879 4.35352 14.8887 4.70508C14.6895 5.04492 14.4141 5.31445 14.0625 5.51367C13.7227 5.71289 13.3477 5.8125 12.9375 5.8125C12.5273 5.8125 12.1465 5.71289 11.7949 5.51367C11.4551 5.31445 11.1855 5.04492 10.9863 4.70508C10.7871 4.35352 10.6875 3.97266 10.6875 3.5625C10.6875 3.15234 10.7871 2.77734 10.9863 2.4375C11.1855 2.08594 11.4551 1.81055 11.7949 1.61133C12.1465 1.41211 12.5273 1.3125 12.9375 1.3125Z" fill="#1C1D21"/>
</svg>
