<svg width="18" height="18" viewBox="0 0 18 18" fill="none" xmlns="http://www.w3.org/2000/svg">
<path d="M15.2371 0.584167C14.6355 0.584167 14.1127 0.806173 13.6687 1.25018L13.6042 1.31464L13.1746 0.906433L1.83081 12.2502L1.03589 16.2463L0.821043 17.256L1.83081 17.0412L5.8269 16.2463L17.1707 4.90253L16.7624 4.49432L16.8054 4.45135L16.8269 4.40839C17.1134 4.12193 17.3067 3.78534 17.407 3.39862C17.5072 3.0119 17.5072 2.63234 17.407 2.25995C17.3067 1.87323 17.1134 1.53664 16.8269 1.25018C16.6121 1.03534 16.3614 0.870626 16.0749 0.756042C15.8028 0.641459 15.5235 0.584167 15.2371 0.584167ZM15.2371 1.93768C15.4662 1.93768 15.6739 2.03078 15.8601 2.21698C16.0463 2.40318 16.1394 2.61086 16.1394 2.84003C16.1394 3.05487 16.0463 3.25539 15.8601 3.44159L15.7957 3.50604L14.571 2.28143L14.6355 2.21698C14.8217 2.03078 15.0222 1.93768 15.2371 1.93768ZM13.196 2.84003L15.2371 4.88104L14.2488 5.89081L12.1863 3.82831L13.196 2.84003ZM11.241 4.81659L13.2605 6.83612L6.08471 14.0334L5.80542 12.7873L5.71948 12.3576L5.28979 12.2717L4.0437 11.9924L11.241 4.81659ZM3.05542 13.174L4.55932 13.5178L4.90307 15.0217L3.50659 15.301L2.77612 14.5705L3.05542 13.174Z" fill="#8181A5"/>
</svg>
