<svg width="17" height="17" viewBox="0 0 17 17" fill="none" xmlns="http://www.w3.org/2000/svg">
<path d="M9.6875 0.25V1.375C10.8008 1.375 11.8438 1.65625 12.8164 2.21875C13.7422 2.76953 14.4805 3.50781 15.0312 4.43359C15.5938 5.40625 15.875 6.44922 15.875 7.5625H17C17 6.23828 16.666 5.00781 15.998 3.87109C15.3535 2.76953 14.4805 1.89648 13.3789 1.25195C12.2422 0.583984 11.0117 0.25 9.6875 0.25ZM3.86914 1.9375C3.55273 1.9375 3.27734 2.03711 3.04297 2.23633L1.23242 4.08203L1.28516 4.04688C0.992188 4.29297 0.798828 4.59766 0.705078 4.96094C0.623047 5.32422 0.646484 5.67578 0.775391 6.01562C1.10352 6.92969 1.54297 7.86719 2.09375 8.82812C2.86719 10.1523 3.78711 11.3418 4.85352 12.3965C6.56445 14.1191 8.69141 15.4785 11.2344 16.4746H11.252C11.5918 16.5918 11.9316 16.6152 12.2715 16.5449C12.623 16.4746 12.9336 16.3223 13.2031 16.0879L14.9785 14.3125C15.2129 14.0781 15.3301 13.791 15.3301 13.4512C15.3301 13.0996 15.2129 12.8066 14.9785 12.5723L12.6758 10.252C12.4414 10.0176 12.1484 9.90039 11.7969 9.90039C11.4453 9.90039 11.1523 10.0176 10.918 10.252L9.81055 11.377C8.91992 10.9551 8.14648 10.4336 7.49023 9.8125C6.83398 9.17969 6.3125 8.41211 5.92578 7.50977L7.05078 6.38477C7.29688 6.12695 7.41992 5.82227 7.41992 5.4707C7.41992 5.10742 7.2793 4.81445 6.99805 4.5918L7.05078 4.64453L4.69531 2.23633C4.46094 2.03711 4.18555 1.9375 3.86914 1.9375ZM9.6875 2.5V3.625C10.4023 3.625 11.0586 3.80078 11.6562 4.15234C12.2656 4.50391 12.7461 4.98438 13.0977 5.59375C13.4492 6.19141 13.625 6.84766 13.625 7.5625H14.75C14.75 6.64844 14.5215 5.79883 14.0645 5.01367C13.6074 4.25195 12.998 3.64258 12.2363 3.18555C11.4512 2.72852 10.6016 2.5 9.6875 2.5ZM3.86914 3.0625C3.9043 3.0625 3.94531 3.08008 3.99219 3.11523L6.29492 5.4707C6.30664 5.51758 6.29492 5.55859 6.25977 5.59375L4.58984 7.24609L4.71289 7.59766L4.94141 8.08984C5.12891 8.48828 5.3457 8.875 5.5918 9.25C5.93164 9.77734 6.30664 10.2285 6.7168 10.6035C7.26758 11.1426 7.92969 11.6348 8.70312 12.0801C9.08984 12.3027 9.41797 12.4668 9.6875 12.5723L10.0391 12.7305L11.7441 11.0254C11.7676 11.002 11.7852 10.9902 11.7969 10.9902C11.8086 10.9902 11.8262 11.002 11.8496 11.0254L14.2227 13.3984C14.2461 13.4219 14.2578 13.4395 14.2578 13.4512C14.2578 13.4512 14.2461 13.4629 14.2227 13.4863L12.4648 15.2266C12.207 15.4492 11.9258 15.5078 11.6211 15.4023C9.23047 14.4766 7.23828 13.2109 5.64453 11.6055C4.66016 10.6211 3.79883 9.50195 3.06055 8.24805C2.5332 7.3457 2.12305 6.47266 1.83008 5.62891V5.61133C1.7832 5.50586 1.77734 5.38281 1.8125 5.24219C1.84766 5.08984 1.91211 4.97266 2.00586 4.89062L3.74609 3.11523C3.78125 3.08008 3.82227 3.0625 3.86914 3.0625ZM9.6875 4.75V5.875C10.1562 5.875 10.5547 6.03906 10.8828 6.36719C11.2109 6.69531 11.375 7.09375 11.375 7.5625H12.5C12.5 7.05859 12.3711 6.58984 12.1133 6.15625C11.8672 5.72266 11.5273 5.38281 11.0938 5.13672C10.6602 4.87891 10.1914 4.75 9.6875 4.75Z" fill="#8181A5"/>
</svg>
