<svg width="12" height="12" viewBox="0 0 12 12" fill="none" xmlns="http://www.w3.org/2000/svg">
<path d="M10 11.25V1.90601L11.297 3.203L12 2.5L9.85899 0.343994L9.5 0L9.14099 0.343994L7 2.5L7.70299 3.203L9 1.90601V11.25H10Z" fill="#8181A5"/>
<path d="M1.59399 0L1.485 0.328003L0.515991 3H0.5V3.032L0 4.407V5H1V4.578L1.20399 4H2.797L3 4.578V5H4V4.407L3.5 3.032V3H3.485L2.51599 0.328003L2.407 0H1.59399ZM2 1.828L2.422 3H1.57899L2 1.828ZM0 6V7H2.782L0.140991 9.64101L0 9.797V11H4V10H1.21899L3.86 7.36L4 7.203V6H0Z" fill="#8181A5"/>
</svg>
