<svg width="12" height="11" viewBox="0 0 12 11" fill="none" xmlns="http://www.w3.org/2000/svg">
<g style="mix-blend-mode:darken">
<path d="M1.66304 0L1.54892 0.320833L0.538038 2.93333H0.521739V2.96389L0 4.30833V4.88889H1.04348V4.47638L1.25543 3.91111H2.91848L3.13043 4.47638V4.88889H4.17391V4.30833L3.65217 2.96389V2.93333H3.63587L2.62499 0.320833L2.51087 0H1.66304ZM8.86957 0V9.13611L7.5163 7.86806L6.78261 8.55556L9.0163 10.6638L9.3913 11L9.76631 10.6638L12 8.55556L11.2663 7.86806L9.91304 9.13611V0H8.86957ZM2.08696 1.7875L2.52718 2.93333H1.64673L2.08696 1.7875ZM0 5.86667V6.84444H2.90217L0.146739 9.42636L0 9.57919V10.7556H4.17391V9.77778H1.27174L4.02718 7.19584L4.17391 7.04305V5.86667H0Z" fill="#8181A5"/>
</g>
</svg>
